<svg width="19" height="20" viewBox="0 0 19 20" fill="none" xmlns="http://www.w3.org/2000/svg">
<path d="M16.3419 8.43668L15.8279 8.97303V14.905C15.8283 15.0892 15.7937 15.2717 15.7262 15.4418C15.6588 15.612 15.5597 15.7665 15.4348 15.8965L12.141 19.3401C11.9649 19.5241 11.7433 19.6533 11.501 19.7132C11.2587 19.7731 11.0052 19.7613 10.769 19.6792C10.5327 19.5972 10.3229 19.448 10.163 19.2484C10.0031 19.0489 9.89952 18.8067 9.86371 18.5491L9.34017 14.6243L5.00988 10.0939L1.2578 9.54648C1.01082 9.50995 0.778451 9.40219 0.586771 9.2353C0.39509 9.06841 0.251677 8.84898 0.172617 8.60162C0.0935567 8.35427 0.0819774 8.08878 0.139178 7.83493C0.196378 7.58108 0.320095 7.34892 0.496452 7.16448L3.79019 3.72081C3.91451 3.59034 4.06232 3.48693 4.2251 3.41655C4.38787 3.34617 4.56238 3.31022 4.73852 3.31078H10.4122L10.9252 2.77443C13.4288 0.156843 16.4454 0.0445601 17.6258 0.117744C17.9524 0.138829 18.2605 0.283935 18.492 0.525783C18.7235 0.767631 18.8625 1.08956 18.8829 1.43105C18.9529 2.66516 18.8445 5.81709 16.3419 8.43668ZM1.41889 8.35548L5.07604 8.88882L9.26154 4.51381H4.73852C4.68774 4.51403 4.63912 4.5353 4.60332 4.57296L1.31054 8.01462C1.28605 8.04044 1.26874 8.07275 1.26047 8.10806C1.25219 8.14338 1.25326 8.18039 1.26355 8.21512C1.2733 8.25194 1.29326 8.28491 1.3209 8.30989C1.34854 8.33486 1.38264 8.35073 1.41889 8.35548ZM14.6773 10.1761L10.4918 14.5521L11.0019 18.3777C11.0072 18.4145 11.0221 18.4491 11.0451 18.4775C11.0681 18.5059 11.0982 18.5271 11.132 18.5386C11.1659 18.5502 11.2021 18.5516 11.2367 18.5429C11.2713 18.5341 11.3029 18.5154 11.3279 18.489L14.6207 15.0463C14.6567 15.0089 14.6771 14.9581 14.6773 14.905V10.1761ZM17.7342 1.50624C17.7305 1.45888 17.7108 1.41444 17.6786 1.38083C17.6465 1.34723 17.604 1.32666 17.5587 1.32278C16.4875 1.2509 15.414 1.41947 14.4103 1.81717C13.4066 2.21487 12.4958 2.8325 11.7393 3.62858L6.09437 9.52643L9.88289 13.4874L14.846 8.29934L15.5278 7.58654C16.2889 6.79608 16.8795 5.8446 17.26 4.79592C17.6406 3.74723 17.8022 2.6256 17.7342 1.50624Z" fill="white" fill-opacity="0.4"/>
<path d="M16.3793 8.4724L16.3792 8.47245L15.8796 8.99381V14.9049V14.905H15.8279C15.8283 15.0892 15.7937 15.2717 15.7262 15.4418C15.6588 15.612 15.5597 15.7665 15.4348 15.8965L16.3793 8.4724ZM16.3793 8.4724C18.8963 5.83774 19.0049 2.66837 18.9345 1.42812L18.9345 1.42796C18.9134 1.07453 18.7695 0.740943 18.5293 0.490031C18.2891 0.239064 17.969 0.0880878 17.6291 0.0661478L17.629 0.0661396C16.4414 -0.00749352 13.4065 0.105412 10.8878 2.73869L10.3901 3.25908L16.3793 8.4724ZM14.6773 14.905C14.6771 14.9581 14.6567 15.0089 14.6207 15.0463L11.3279 18.489C11.3029 18.5154 11.2713 18.5341 11.2367 18.5429C11.2021 18.5516 11.1659 18.5502 11.132 18.5386C11.0982 18.5271 11.0681 18.5059 11.0451 18.4775C11.0221 18.4491 11.0072 18.4145 11.0019 18.3777M14.6773 14.905V10.2509L14.6256 10.3049M14.6773 14.905H14.6256M14.6773 14.905L14.6256 14.9048M14.6256 10.3049V10.2301L10.4918 14.5521M14.6256 10.3049L14.6256 14.9048M14.6256 10.3049L10.5463 14.5699M10.4918 14.5521L11.0019 18.3777M10.4918 14.5521L10.543 14.5452L10.5463 14.5699M10.4918 14.5521L10.5291 14.5878L10.5463 14.5699M11.0019 18.3777L11.0531 18.3704L10.5463 14.5699M11.0019 18.3777L11.0531 18.3709L11.0531 18.3706C11.0571 18.3982 11.0684 18.424 11.0853 18.445C11.1023 18.466 11.1243 18.4813 11.1487 18.4897C11.1731 18.498 11.1992 18.499 11.224 18.4927C11.2489 18.4864 11.2719 18.4729 11.2904 18.4535L11.2906 18.4532L14.5833 15.0106L14.5834 15.0105C14.61 14.9829 14.6254 14.945 14.6256 14.905M14.6256 14.905L14.6256 14.9048M14.6256 14.905C14.6256 14.9049 14.6256 14.9048 14.6256 14.9048M15.4721 15.9323C15.4721 15.9323 15.4721 15.9323 15.4721 15.9322L4.73868 3.25908L4.73852 3.31078V3.25908H4.73861C4.55533 3.2585 4.37381 3.29592 4.20458 3.36909C4.03533 3.44227 3.88178 3.54973 3.75276 3.68515L0.459088 7.12874L0.459082 7.12875C0.276105 7.32011 0.14796 7.56075 0.0887386 7.82357C0.0295191 8.08638 0.0414987 8.36123 0.123368 8.61736C0.20524 8.87351 0.353849 9.10105 0.552819 9.27429C0.75181 9.44755 0.99329 9.55962 1.25023 9.59762L1.25034 9.59764L4.9848 10.1424L9.29114 14.6478L9.81246 18.556L9.8125 18.5563C9.84957 18.8229 9.95686 19.0738 10.1227 19.2808C10.2885 19.4878 10.5063 19.6427 10.752 19.7281C10.9977 19.8134 11.2614 19.8257 11.5134 19.7634C11.7654 19.7011 11.9956 19.5668 12.1784 19.3759L12.1784 19.3759L15.4721 15.9323ZM1.42635 8.30432L1.42635 8.30431L1.42561 8.30421C1.39997 8.30085 1.37557 8.28961 1.35556 8.27152C1.33552 8.25342 1.32078 8.22925 1.31353 8.20189L1.31355 8.20188L1.31313 8.20043C1.30539 8.17432 1.30458 8.14645 1.31081 8.11986C1.31703 8.09332 1.32997 8.0693 1.34799 8.05027C1.34801 8.05024 1.34803 8.05022 1.34806 8.05019L4.64068 4.6087L4.64079 4.60858C4.66711 4.5809 4.70235 4.5657 4.73864 4.56551C4.73868 4.56551 4.73871 4.56551 4.73875 4.56551L9.14052 4.56551L5.05712 8.83381L1.42635 8.30432ZM14.8087 8.2636L9.88289 13.4126L6.16593 9.52644L11.7766 3.66433L11.7768 3.6642C12.5282 2.87346 13.4327 2.26013 14.4293 1.86524C15.4258 1.47041 16.4914 1.30306 17.5547 1.37433C17.587 1.3772 17.6177 1.39195 17.6413 1.41657C17.6649 1.44125 17.6797 1.47425 17.6826 1.50983C17.7502 2.62202 17.5895 3.73642 17.2114 4.77828C16.8333 5.82027 16.2465 6.76552 15.4905 7.55068L15.4904 7.5508L14.8087 8.2636Z" stroke="white" stroke-opacity="0.4" stroke-width="0.1"/>
</svg>
