<svg width="14" height="14" viewBox="0 0 14 14" fill="none" xmlns="http://www.w3.org/2000/svg">
<path d="M13.2686 13.2686L10.0952 10.0952M10.0952 10.0952C10.6045 9.58587 11.0086 8.98118 11.2842 8.31568C11.5599 7.65018 11.7018 6.93691 11.7018 6.21658C11.7018 5.49625 11.5599 4.78297 11.2842 4.11747C11.0086 3.45198 10.6045 2.84729 10.0952 2.33794C9.58585 1.82859 8.98116 1.42455 8.31566 1.14889C7.65017 0.873234 6.93689 0.731355 6.21656 0.731355C5.49623 0.731355 4.78296 0.873234 4.11746 1.14889C3.45196 1.42455 2.84727 1.82859 2.33792 2.33794C1.30924 3.36662 0.731339 4.76181 0.731339 6.21658C0.731339 7.67135 1.30924 9.06654 2.33792 10.0952C3.3666 11.1239 4.76179 11.7018 6.21656 11.7018C7.67133 11.7018 9.06652 11.1239 10.0952 10.0952Z" stroke="#0B0B0B" stroke-opacity="0.3" stroke-width="1.4" stroke-linecap="round" stroke-linejoin="round"/>
</svg>
