<svg width="30" height="25" viewBox="0 0 30 25" fill="none" xmlns="http://www.w3.org/2000/svg">
<path d="M25.605 0H29.94L20.9175 8.9355C19.34 10.4897 17.2145 11.3609 15 11.3609C12.7855 11.3609 10.66 10.4897 9.0825 8.9355L0.0524998 0H4.395L11.25 6.7845C12.2482 7.76979 13.5944 8.32225 14.997 8.32225C16.3996 8.32225 17.7458 7.76979 18.744 6.7845L25.605 0ZM4.3425 24.8445H0L9.0825 15.855C10.66 14.3008 12.7855 13.4296 15 13.4296C17.2145 13.4296 19.34 14.3008 20.9175 15.855L30 24.843H25.6575L18.75 18C17.7518 17.0147 16.4056 16.4623 15.003 16.4623C13.6004 16.4623 12.2542 17.0147 11.256 18L4.341 24.8445H4.3425Z" fill="white"/>
</svg>
