<svg width="20" height="21" viewBox="0 0 20 21" fill="none" xmlns="http://www.w3.org/2000/svg">
<path fill-rule="evenodd" clip-rule="evenodd" d="M9.9898 0.256098C9.59065 0.256098 9.20786 0.410279 8.92562 0.684724C8.64338 0.95917 8.48482 1.3314 8.48482 1.71952V1.86586C6.78542 2.20374 5.25814 3.10191 4.16125 4.40851C3.06435 5.71511 2.46513 7.34997 2.46492 9.03664V14.8903L0.651424 16.8338C-0.225976 17.7747 0.460293 19.2806 1.76511 19.2806H7.38318C7.64737 19.7255 8.02733 20.095 8.48489 20.3518C8.94244 20.6087 9.46147 20.7439 9.9898 20.7439C10.5181 20.7439 11.0372 20.6087 11.4947 20.3518C11.9523 20.095 12.3322 19.7255 12.5964 19.2806H18.2145C19.5193 19.2806 20.2056 17.7733 19.3282 16.8338L17.5147 14.8903V9.03664C17.5145 7.34997 16.9152 5.71511 15.8183 4.40851C14.7215 3.10191 13.1942 2.20374 11.4948 1.86586V1.71952C11.4948 1.3314 11.3362 0.95917 11.054 0.684724C10.7717 0.410279 10.3889 0.256098 9.9898 0.256098ZM4.72238 15.7391L4.13544 16.3655L3.46422 17.0855H16.5154L15.8426 16.3655L15.2572 15.7377V9.03664C15.2572 8.36401 15.121 7.69797 14.8563 7.07654C14.5915 6.45511 14.2035 5.89047 13.7144 5.41485C13.2253 4.93923 12.6446 4.56195 12.0056 4.30454C11.3665 4.04714 10.6815 3.91466 9.9898 3.91466C9.29807 3.91466 8.61312 4.04714 7.97405 4.30454C7.33497 4.56195 6.7543 4.93923 6.26517 5.41485C5.77605 5.89047 5.38805 6.45511 5.12334 7.07654C4.85863 7.69797 4.72238 8.36401 4.72238 9.03664V15.7391Z" fill="#0B0B0B" stroke="#FEF9DB" stroke-width="0.5" stroke-linejoin="round"/>
</svg>
