<svg width="47" height="47" viewBox="0 0 47 47" fill="none" xmlns="http://www.w3.org/2000/svg">
<path d="M23.5 47C36.4787 47 47 36.4787 47 23.5C47 10.5213 36.4787 0 23.5 0C10.5213 0 0 10.5213 0 23.5C0 36.4787 10.5213 47 23.5 47Z" fill="#627EEA"/>
<path d="M24.2314 5.87508V18.9029L35.2426 23.8232L24.2314 5.87508Z" fill="white" fill-opacity="0.602"/>
<path d="M24.2314 5.87505L13.2188 23.8232L24.2314 18.9029V5.87505Z" fill="white"/>
<path d="M24.2314 32.2656V41.1178L35.25 25.8736L24.2314 32.2656Z" fill="white" fill-opacity="0.602"/>
<path d="M24.2314 41.1178V32.2641L13.2188 25.8736L24.2314 41.1178Z" fill="white"/>
<path d="M24.2314 30.2167L35.2426 23.8232L24.2314 18.9058V30.2167Z" fill="white" fill-opacity="0.2"/>
<path d="M13.2188 23.8232L24.2314 30.2167V18.9058L13.2188 23.8232Z" fill="white" fill-opacity="0.602"/>
</svg>
