<svg width="65" height="25" viewBox="0 0 65 25" fill="none" xmlns="http://www.w3.org/2000/svg">
<path d="M0.741032 0.13605L1.40027 3.72679C2.05951 7.31753 3.37799 14.499 4.69647 14.3353C6.01495 14.1716 7.33343 6.66271 8.65191 5.31921C9.97039 3.97571 11.2889 8.79761 12.6074 10.5267C13.9258 12.2557 15.2443 10.892 16.5628 11.9808C17.8813 13.0696 19.1998 16.6109 20.5182 16.0461C21.8367 15.4812 23.1552 10.8101 24.4737 11.1161C25.7922 11.4222 27.1106 16.7053 28.4291 20.2371C29.7476 23.7688 31.0661 25.5491 32.3846 23.1388C33.703 20.7285 35.0215 14.1275 36.34 13.0064C37.6585 11.8853 38.977 16.2441 40.2954 17.3602C41.6139 18.4763 42.9324 16.3498 44.2509 16.9943C45.5694 17.6389 46.8878 21.0546 48.2063 21.9039C49.5248 22.7532 50.8433 21.0361 52.1618 21.3887C53.4802 21.7413 54.7987 24.1636 56.1172 23.041C57.4357 21.9184 58.7541 17.251 60.0726 16.3287C61.3911 15.4064 62.7096 18.2293 63.3688 19.6408L64.0281 21.0523" stroke="#FF3D00" stroke-width="1.5"/>
</svg>
