<svg width="65" height="17" viewBox="0 0 65 17" fill="none" xmlns="http://www.w3.org/2000/svg">
<path d="M0.729558 0.185868L1.43223 2.94392C2.1349 5.70197 3.54024 11.2181 4.94559 10.9645C6.35093 10.7109 7.75627 4.68757 9.16162 3.50723C10.567 2.32689 11.9723 5.98952 13.3776 7.22271C14.783 8.45589 16.1883 7.25962 17.5937 7.98987C18.999 8.72013 20.4044 11.3769 21.8097 10.8082C23.2151 10.2395 24.6204 6.44527 26.0257 6.56065C27.4311 6.67603 28.8364 10.701 30.2418 13.3502C31.6471 15.9994 33.0525 17.2729 34.4578 15.2545C35.8631 13.2362 37.2685 7.92605 38.6738 6.92041C40.0792 5.91477 41.4845 9.21361 42.8899 9.96531C44.2952 10.717 45.7005 8.92158 47.1059 9.30289C48.5112 9.6842 49.9166 12.2423 51.3219 12.7844C52.7273 13.3265 54.1326 11.8527 55.5379 12.0047C56.9433 12.1566 58.3486 13.9343 59.754 12.9275C61.1593 11.9207 62.5647 8.12936 63.2673 6.2337L63.97 4.33804" stroke="#00CE08" stroke-width="1.5"/>
</svg>
