<svg width="27" height="21" viewBox="0 0 27 21" fill="none" xmlns="http://www.w3.org/2000/svg">
<path d="M4.38672 16.0305C4.55256 15.8669 4.77624 15.7752 5.00922 15.7755H26.5582C26.6451 15.7743 26.7303 15.7992 26.8029 15.8469C26.8756 15.8946 26.9322 15.963 26.9656 16.0432C26.999 16.1234 27.0077 16.2118 26.9904 16.2969C26.9731 16.3821 26.9307 16.4601 26.8687 16.521L22.6117 20.7435C22.4461 20.9076 22.2224 20.9998 21.9892 21H0.440223C0.353352 21.0007 0.268236 20.9755 0.195769 20.9276C0.123301 20.8797 0.0667782 20.8112 0.0334339 20.731C8.95382e-05 20.6508 -0.00855975 20.5625 0.00859379 20.4773C0.0257473 20.3921 0.067923 20.314 0.129723 20.253L4.38672 16.0305ZM4.38672 0.255C4.55256 0.0913775 4.77624 -0.000249315 5.00922 5.09528e-07H26.5582C26.9497 5.09528e-07 27.1462 0.471 26.8687 0.747L22.6117 4.96949C22.4458 5.13312 22.2222 5.22474 21.9892 5.22449H0.440223C0.353662 5.22493 0.268926 5.19962 0.196785 5.15178C0.124644 5.10394 0.0683562 5.03573 0.0350747 4.95583C0.00179318 4.87592 -0.0069784 4.78792 0.00987481 4.70302C0.026728 4.61811 0.0684446 4.54013 0.129723 4.47899L4.38672 0.255ZM22.6117 8.09249C22.4458 7.92887 22.2222 7.83724 21.9892 7.83749H0.440223C0.353352 7.83675 0.268236 7.86195 0.195769 7.90986C0.123301 7.95777 0.0667782 8.02621 0.0334339 8.10643C8.95382e-05 8.18665 -0.00855975 8.275 0.00859379 8.36016C0.0257473 8.44533 0.067923 8.52343 0.129723 8.58449L4.38672 12.807C4.55172 12.9705 4.77672 13.062 5.00922 13.062H26.5582C26.6451 13.0627 26.7302 13.0375 26.8026 12.9896C26.8751 12.9417 26.9316 12.8733 26.965 12.793C26.9983 12.7128 27.007 12.6245 26.9898 12.5393C26.9727 12.4541 26.9305 12.376 26.8687 12.315L22.6117 8.09249Z" fill="white"/>
</svg>
