<svg width="12" height="9" viewBox="0 0 12 9" fill="none" xmlns="http://www.w3.org/2000/svg">
<path d="M7.37357 7.65C7.53213 7.65 7.6842 7.72112 7.79632 7.8477C7.90844 7.97429 7.97143 8.14598 7.97143 8.325C7.97143 8.50402 7.90844 8.67571 7.79632 8.8023C7.6842 8.92888 7.53213 9 7.37357 9H3.78643C3.62787 9 3.4758 8.92888 3.36368 8.8023C3.25156 8.67571 3.18857 8.50402 3.18857 8.325C3.18857 8.14598 3.25156 7.97429 3.36368 7.8477C3.4758 7.72112 3.62787 7.65 3.78643 7.65H7.37357ZM8.96786 3.825C9.12642 3.825 9.27849 3.89612 9.39061 4.0227C9.50273 4.14929 9.56572 4.32098 9.56572 4.5C9.56572 4.67902 9.50273 4.85071 9.39061 4.9773C9.27849 5.10388 9.12642 5.175 8.96786 5.175H2.19214C2.03358 5.175 1.88151 5.10388 1.76939 4.9773C1.65727 4.85071 1.59429 4.67902 1.59429 4.5C1.59429 4.32098 1.65727 4.14929 1.76939 4.0227C1.88151 3.89612 2.03358 3.825 2.19214 3.825H8.96786ZM10.5621 0C10.7207 0 10.8728 0.0711158 10.9849 0.197703C11.097 0.32429 11.16 0.495979 11.16 0.675C11.16 0.854021 11.097 1.02571 10.9849 1.1523C10.8728 1.27888 10.7207 1.35 10.5621 1.35H0.597857C0.439296 1.35 0.287228 1.27888 0.175108 1.1523C0.0629883 1.02571 0 0.854021 0 0.675C0 0.495979 0.0629883 0.32429 0.175108 0.197703C0.287228 0.0711158 0.439296 0 0.597857 0H10.5621Z" fill="#0B0B0B" fill-opacity="0.3"/>
</svg>
