<svg width="317" height="42" viewBox="0 0 317 42" fill="none" xmlns="http://www.w3.org/2000/svg">
<path d="M315.999 1.00021L312.499 7.8691C308.999 14.738 301.999 28.4758 294.999 27.8442C287.999 27.2126 280.999 12.2116 273.999 9.27201C266.999 6.3324 259.999 15.4541 252.999 18.5254C245.999 21.5966 238.999 18.6173 231.999 20.436C224.999 22.2547 217.999 28.8713 210.999 27.455C203.999 26.0386 196.999 16.5892 189.999 16.8765C182.999 17.1639 175.999 27.188 168.999 33.7858C162 40.3836 155 43.5551 148 38.5285C141 33.5018 134 20.277 127 17.7725C120 15.2679 113 23.4837 106 25.3558C98.9997 27.2279 91.9998 22.7564 84.9998 23.706C77.9998 24.6557 70.9998 31.0265 63.9999 32.3766C56.9999 33.7268 49.9999 30.0563 42.9999 30.4348C35.9999 30.8132 29 35.2405 22 32.7331C15 30.2256 8.00006 20.7834 4.50007 16.0623L1.00006 11.3411" stroke="#00CE08" stroke-width="2" stroke-linecap="round"/>
</svg>
