<svg width="47" height="47" viewBox="0 0 47 47" fill="none" xmlns="http://www.w3.org/2000/svg">
<path d="M23.5 47C36.4787 47 47 36.4787 47 23.5C47 10.5213 36.4787 0 23.5 0C10.5213 0 0 10.5213 0 23.5C0 36.4787 10.5213 47 23.5 47Z" fill="#0D1E30"/>
<g filter="url(#filter0_d_1_58)">
<path d="M23.0961 8.90061C23.7997 8.53783 24.6589 9.37648 24.2858 10.0683C24.067 10.6323 23.243 10.7821 22.8229 10.3517C22.3779 9.94048 22.5233 9.12386 23.0961 8.89914V8.90061ZM15.5247 9.70254C15.9521 9.52923 16.4941 9.91404 16.45 10.3738C16.4941 10.8702 15.8772 11.2374 15.441 11.0009C14.8638 10.7806 14.9299 9.85823 15.5247 9.70254ZM31.0318 11.0141C30.3635 10.9348 30.2577 9.90083 30.8996 9.69226C31.399 9.45433 31.8572 9.90229 31.9307 10.3679C31.8249 10.7645 31.4871 11.1287 31.0318 11.0141ZM17.2476 12.8721C17.9628 12.4271 18.9822 13.0895 18.872 13.9076C18.8353 14.7315 17.722 15.2104 17.0933 14.6522C16.4853 14.2145 16.5778 13.2099 17.2476 12.8721ZM28.1604 13.345C28.4791 12.5372 29.7716 12.5108 30.1344 13.298C30.4942 13.9105 30.0521 14.6699 29.4132 14.8784C28.5657 15.0341 27.7623 14.1323 28.1604 13.345ZM22.184 14.8329C22.1767 14.1367 22.82 13.6197 23.4912 13.5712C23.9377 13.6594 24.4224 13.8459 24.6133 14.288C24.9702 14.899 24.653 15.7376 24.0112 16.0182C23.7174 16.1797 23.3678 16.1195 23.0477 16.1004C22.5586 15.8654 22.1458 15.3998 22.184 14.8329ZM10.9246 15.8463C11.5782 15.4498 12.4594 16.1694 12.2112 16.8686C12.0761 17.4722 11.2507 17.7175 10.7792 17.3327C10.2754 16.9714 10.3547 16.1034 10.9261 15.8449L10.9246 15.8463ZM35.1032 15.8434C35.6569 15.4204 36.5719 15.9065 36.5043 16.5939C36.5425 17.2211 35.7509 17.6955 35.2016 17.3724C34.5964 17.1036 34.5333 16.1871 35.1032 15.8449V15.8434ZM25.3507 17.0933C26.2642 16.7702 27.3511 17.1564 27.871 17.9599C28.5584 18.9395 28.1942 20.4318 27.1264 20.9943C26.0219 21.6596 24.4077 21.0971 23.9979 19.881C23.5353 18.7941 24.2109 17.434 25.3492 17.0933H25.3507ZM19.9853 17.2005C20.9987 16.7305 22.3632 17.1241 22.8523 18.1434C23.4281 19.1363 22.983 20.5184 21.9534 21.031C20.9224 21.6082 19.4668 21.1705 18.9689 20.1057C18.4093 19.0746 18.9058 17.6749 19.9853 17.2005ZM14.6141 19.0056C14.6919 18.3638 15.3073 17.9452 15.9286 17.9011C16.2526 17.9353 16.5554 18.0785 16.7876 18.3071C17.0197 18.5357 17.1673 18.8364 17.2064 19.1598C17.1624 19.8208 16.6439 20.4641 15.933 20.4611C15.1502 20.5272 14.4643 19.7605 14.6141 19.0056ZM30.4795 18.0421C31.2829 17.5824 32.3977 18.2507 32.3625 19.1584C32.4168 20.1204 31.1831 20.7975 30.3841 20.2335C29.5527 19.7635 29.6174 18.4416 30.4795 18.0421ZM17.8042 21.4305C18.7413 21.1764 19.8164 21.6112 20.2761 22.4601C20.7799 23.3149 20.5743 24.5017 19.7914 25.1303C18.7853 26.0497 16.9332 25.6796 16.3986 24.4253C15.7832 23.2753 16.5308 21.7331 17.8027 21.429L17.8042 21.4305ZM27.9782 21.4261C28.8903 21.1691 29.9625 21.5142 30.4531 22.3323C31.1023 23.2679 30.7924 24.6647 29.8274 25.2669C28.814 25.9675 27.2483 25.6003 26.6902 24.5046C26.0145 23.3722 26.6946 21.7713 27.9782 21.4261ZM11.7632 22.4924C12.574 22.1913 13.4729 23.0711 13.1439 23.8628C12.9441 24.5824 11.9116 24.8498 11.3784 24.3181C10.7542 23.8187 10.9848 22.7098 11.7632 22.4924ZM33.749 23.641C33.7337 23.3177 33.8468 23.0014 34.0635 22.761C34.2803 22.5206 34.5832 22.3755 34.9063 22.3573C35.4615 22.4454 36.002 22.886 35.958 23.4809C36.0094 24.2667 35.0473 24.7998 34.3658 24.4312C34.0471 24.2711 33.8841 23.9494 33.749 23.641ZM7.77559 22.8831C8.26322 22.6731 8.86687 23.0887 8.75525 23.6219C8.72881 24.2255 7.82259 24.4591 7.49066 23.9538C7.19691 23.6028 7.37316 23.0638 7.77559 22.8816V22.8831ZM38.5444 22.8699C38.8881 22.6305 39.4404 22.8023 39.5755 23.1974C39.8061 23.6292 39.3831 24.2197 38.8896 24.1477C38.1963 24.2094 37.9731 23.171 38.5444 22.8699ZM20.4538 25.7677C21.7375 25.4402 23.1182 26.4933 23.127 27.7946C23.2092 29.1091 21.8492 30.2739 20.5361 29.9713C19.5197 29.8097 18.7222 28.8462 18.756 27.8372C18.753 26.8708 19.4933 25.9719 20.4538 25.7677ZM25.5387 25.7663C26.8414 25.4079 28.2632 26.4801 28.2426 27.8108C28.3117 29.1003 26.9942 30.2269 25.7076 29.9698C24.4958 29.8171 23.6028 28.5084 23.9407 27.351C24.111 26.5814 24.7661 25.9557 25.5387 25.7648V25.7663ZM15.7333 26.5667C16.6351 26.4154 17.4811 27.4039 17.1154 28.247C16.8481 29.1459 15.5203 29.3882 14.9328 28.6553C14.2454 27.9503 14.7595 26.6637 15.7333 26.5667ZM30.647 26.6064C31.4518 26.2744 32.4388 26.9589 32.3772 27.8181C32.4095 28.7625 31.1904 29.4146 30.4046 28.8624C29.5131 28.3674 29.6761 26.9089 30.647 26.6064ZM34.8153 30.7189C34.501 30.1417 35.0723 29.3764 35.7259 29.4837C36.049 29.4778 36.2767 29.7289 36.4838 29.9404C36.5264 30.2827 36.5983 30.691 36.309 30.9539C35.9168 31.443 35.0282 31.3035 34.8153 30.7189ZM10.9217 29.6438C11.5312 29.2457 12.408 29.8406 12.27 30.5397C12.1965 31.161 11.4034 31.5149 10.882 31.1624C10.3209 30.8437 10.3415 29.9346 10.9217 29.6438ZM22.9551 30.9407C23.7527 30.5955 24.769 31.2785 24.6927 32.1421C24.7514 33.0968 23.4956 33.7577 22.7157 33.1849C21.8492 32.6929 21.9946 31.2447 22.9551 30.9407ZM17.3827 32.2199C18.0612 31.8689 18.9719 32.4755 18.9102 33.2246C18.9307 33.8385 18.3227 34.3614 17.7058 34.2703C17.1962 34.26 16.8642 33.8091 16.6997 33.3817C16.7085 32.9161 16.9039 32.3977 17.3827 32.2214V32.2199ZM28.6715 32.2317C29.3706 31.8058 30.3635 32.4168 30.2974 33.2158C30.315 34.0529 29.1929 34.5876 28.5422 34.0383C27.9136 33.6079 27.99 32.5739 28.6715 32.2317ZM30.6352 37.0051C30.3238 36.5439 30.6896 35.9873 31.1933 35.8815C31.6002 35.9623 32.0305 36.2634 31.9439 36.7246C31.8851 37.3518 30.9539 37.5427 30.6352 37.0066V37.0051ZM15.0503 36.6042C15.1737 36.237 15.4733 35.8742 15.9125 35.9697C16.5514 36.0137 16.7408 36.9625 16.1812 37.2548C15.6789 37.5882 15.0944 37.1315 15.0503 36.6042ZM22.5703 37.0257C22.6922 36.4823 23.4046 36.2194 23.8746 36.5072C24.1859 36.6394 24.277 36.9802 24.3563 37.271C24.3144 37.422 24.2752 37.5738 24.2388 37.7263C24.0464 37.9495 23.7982 38.1743 23.478 38.1669C22.8832 38.236 22.3456 37.5735 22.5688 37.0257H22.5703Z" fill="black"/>
</g>
<path d="M23.0961 8.90061C23.7997 8.53783 24.6589 9.37648 24.2858 10.0683C24.067 10.6323 23.243 10.7821 22.8229 10.3517C22.3779 9.94048 22.5233 9.12386 23.0961 8.89914V8.90061ZM15.5247 9.70254C15.9521 9.52923 16.4941 9.91404 16.45 10.3738C16.4941 10.8702 15.8772 11.2374 15.441 11.0009C14.8638 10.7806 14.9299 9.85823 15.5247 9.70254ZM31.0318 11.0141C30.3635 10.9348 30.2577 9.90083 30.8996 9.69226C31.399 9.45433 31.8572 9.90229 31.9307 10.3679C31.8249 10.7645 31.4871 11.1287 31.0318 11.0141ZM17.2476 12.8721C17.9628 12.4271 18.9822 13.0895 18.872 13.9076C18.8353 14.7315 17.722 15.2104 17.0933 14.6522C16.4853 14.2145 16.5778 13.2099 17.2476 12.8721ZM28.1604 13.345C28.4791 12.5372 29.7716 12.5108 30.1344 13.298C30.4942 13.9105 30.0521 14.6699 29.4132 14.8784C28.5657 15.0341 27.7623 14.1323 28.1604 13.345ZM22.184 14.8329C22.1767 14.1367 22.82 13.6197 23.4912 13.5712C23.9377 13.6594 24.4224 13.8459 24.6133 14.288C24.9702 14.899 24.653 15.7376 24.0112 16.0182C23.7174 16.1797 23.3678 16.1195 23.0477 16.1004C22.5586 15.8654 22.1458 15.3998 22.184 14.8329ZM10.9246 15.8463C11.5782 15.4498 12.4594 16.1694 12.2112 16.8686C12.0761 17.4722 11.2507 17.7175 10.7792 17.3327C10.2754 16.9714 10.3547 16.1034 10.9261 15.8449L10.9246 15.8463ZM35.1032 15.8434C35.6569 15.4204 36.5719 15.9065 36.5043 16.5939C36.5425 17.2211 35.7509 17.6955 35.2016 17.3724C34.5964 17.1036 34.5333 16.1871 35.1032 15.8449V15.8434ZM25.3507 17.0933C26.2642 16.7702 27.3511 17.1564 27.871 17.9599C28.5584 18.9395 28.1942 20.4318 27.1264 20.9943C26.0219 21.6596 24.4077 21.0971 23.9979 19.881C23.5353 18.7941 24.2109 17.434 25.3492 17.0933H25.3507ZM19.9853 17.2005C20.9987 16.7305 22.3632 17.1241 22.8523 18.1434C23.4281 19.1363 22.983 20.5184 21.9534 21.031C20.9224 21.6082 19.4668 21.1705 18.9689 20.1057C18.4093 19.0746 18.9058 17.6749 19.9853 17.2005ZM14.6141 19.0056C14.6919 18.3638 15.3073 17.9452 15.9286 17.9011C16.2526 17.9353 16.5554 18.0785 16.7876 18.3071C17.0197 18.5357 17.1673 18.8364 17.2064 19.1598C17.1624 19.8208 16.6439 20.4641 15.933 20.4611C15.1502 20.5272 14.4643 19.7605 14.6141 19.0056ZM30.4795 18.0421C31.2829 17.5824 32.3977 18.2507 32.3625 19.1584C32.4168 20.1204 31.1831 20.7975 30.3841 20.2335C29.5527 19.7635 29.6174 18.4416 30.4795 18.0421ZM17.8042 21.4305C18.7413 21.1764 19.8164 21.6112 20.2761 22.4601C20.7799 23.3149 20.5743 24.5017 19.7914 25.1303C18.7853 26.0497 16.9332 25.6796 16.3986 24.4253C15.7832 23.2753 16.5308 21.7331 17.8027 21.429L17.8042 21.4305ZM27.9782 21.4261C28.8903 21.1691 29.9625 21.5142 30.4531 22.3323C31.1023 23.2679 30.7924 24.6647 29.8274 25.2669C28.814 25.9675 27.2483 25.6003 26.6902 24.5046C26.0145 23.3722 26.6946 21.7713 27.9782 21.4261ZM11.7632 22.4924C12.574 22.1913 13.4729 23.0711 13.1439 23.8628C12.9441 24.5824 11.9116 24.8498 11.3784 24.3181C10.7542 23.8187 10.9848 22.7098 11.7632 22.4924ZM33.749 23.641C33.7337 23.3177 33.8468 23.0014 34.0635 22.761C34.2803 22.5206 34.5832 22.3755 34.9063 22.3573C35.4615 22.4454 36.002 22.886 35.958 23.4809C36.0094 24.2667 35.0473 24.7998 34.3658 24.4312C34.0471 24.2711 33.8841 23.9494 33.749 23.641ZM7.77559 22.8831C8.26322 22.6731 8.86687 23.0887 8.75525 23.6219C8.72881 24.2255 7.82259 24.4591 7.49066 23.9538C7.19691 23.6028 7.37316 23.0638 7.77559 22.8816V22.8831ZM38.5444 22.8699C38.8881 22.6305 39.4404 22.8023 39.5755 23.1974C39.8061 23.6292 39.3831 24.2197 38.8896 24.1477C38.1963 24.2094 37.9731 23.171 38.5444 22.8699ZM20.4538 25.7677C21.7375 25.4402 23.1182 26.4933 23.127 27.7946C23.2092 29.1091 21.8492 30.2739 20.5361 29.9713C19.5197 29.8097 18.7222 28.8462 18.756 27.8372C18.753 26.8708 19.4933 25.9719 20.4538 25.7677ZM25.5387 25.7663C26.8414 25.4079 28.2632 26.4801 28.2426 27.8108C28.3117 29.1003 26.9942 30.2269 25.7076 29.9698C24.4958 29.8171 23.6028 28.5084 23.9407 27.351C24.111 26.5814 24.7661 25.9557 25.5387 25.7648V25.7663ZM15.7333 26.5667C16.6351 26.4154 17.4811 27.4039 17.1154 28.247C16.8481 29.1459 15.5203 29.3882 14.9328 28.6553C14.2454 27.9503 14.7595 26.6637 15.7333 26.5667ZM30.647 26.6064C31.4518 26.2744 32.4388 26.9589 32.3772 27.8181C32.4095 28.7625 31.1904 29.4146 30.4046 28.8624C29.5131 28.3674 29.6761 26.9089 30.647 26.6064ZM34.8153 30.7189C34.501 30.1417 35.0723 29.3764 35.7259 29.4837C36.049 29.4778 36.2767 29.7289 36.4838 29.9404C36.5264 30.2827 36.5983 30.691 36.309 30.9539C35.9168 31.443 35.0282 31.3035 34.8153 30.7189ZM10.9217 29.6438C11.5312 29.2457 12.408 29.8406 12.27 30.5397C12.1965 31.161 11.4034 31.5149 10.882 31.1624C10.3209 30.8437 10.3415 29.9346 10.9217 29.6438ZM22.9551 30.9407C23.7527 30.5955 24.769 31.2785 24.6927 32.1421C24.7514 33.0968 23.4956 33.7577 22.7157 33.1849C21.8492 32.6929 21.9946 31.2447 22.9551 30.9407ZM17.3827 32.2199C18.0612 31.8689 18.9719 32.4755 18.9102 33.2246C18.9307 33.8385 18.3227 34.3614 17.7058 34.2703C17.1962 34.26 16.8642 33.8091 16.6997 33.3817C16.7085 32.9161 16.9039 32.3977 17.3827 32.2214V32.2199ZM28.6715 32.2317C29.3706 31.8058 30.3635 32.4168 30.2974 33.2158C30.315 34.0529 29.1929 34.5876 28.5422 34.0383C27.9136 33.6079 27.99 32.5739 28.6715 32.2317ZM30.6352 37.0051C30.3238 36.5439 30.6896 35.9873 31.1933 35.8815C31.6002 35.9623 32.0305 36.2634 31.9439 36.7246C31.8851 37.3518 30.9539 37.5427 30.6352 37.0066V37.0051ZM15.0503 36.6042C15.1737 36.237 15.4733 35.8742 15.9125 35.9697C16.5514 36.0137 16.7408 36.9625 16.1812 37.2548C15.6789 37.5882 15.0944 37.1315 15.0503 36.6042ZM22.5703 37.0257C22.6922 36.4823 23.4046 36.2194 23.8746 36.5072C24.1859 36.6394 24.277 36.9802 24.3563 37.271C24.3144 37.422 24.2752 37.5738 24.2388 37.7263C24.0464 37.9495 23.7982 38.1743 23.478 38.1669C22.8832 38.236 22.3456 37.5735 22.5688 37.0257H22.5703Z" fill="white"/>
<defs>
<filter id="filter0_d_1_58" x="4.67935" y="7.48055" width="37.6259" height="34.689" filterUnits="userSpaceOnUse" color-interpolation-filters="sRGB">
<feFlood flood-opacity="0" result="BackgroundImageFix"/>
<feColorMatrix in="SourceAlpha" type="matrix" values="0 0 0 0 0 0 0 0 0 0 0 0 0 0 0 0 0 0 127 0" result="hardAlpha"/>
<feOffset dy="1.31776"/>
<feGaussianBlur stdDeviation="1.31776"/>
<feColorMatrix type="matrix" values="0 0 0 0 0 0 0 0 0 0 0 0 0 0 0 0 0 0 0.204257 0"/>
<feBlend mode="normal" in2="BackgroundImageFix" result="effect1_dropShadow_1_58"/>
<feBlend mode="normal" in="SourceGraphic" in2="effect1_dropShadow_1_58" result="shape"/>
</filter>
</defs>
</svg>
