<svg width="47" height="47" viewBox="0 0 47 47" fill="none" xmlns="http://www.w3.org/2000/svg">
<path fill-rule="evenodd" clip-rule="evenodd" d="M47 23.5C47 36.4787 36.4787 47 23.5 47C10.5213 47 0 36.4787 0 23.5C0 10.5213 10.5213 0 23.5 0C36.4787 0 47 10.5213 47 23.5ZM28.9696 14.7536C32.1745 15.8581 34.5201 17.5134 34.0589 20.5919C33.7255 22.8464 32.477 23.9377 30.8173 24.3196C33.0954 25.5049 34.2542 27.3246 33.1497 30.4766C31.7794 34.3923 28.5246 34.7227 24.1947 33.9032L23.1446 38.1126L20.6066 37.481L21.6435 33.3274C20.9855 33.1629 20.3128 32.9896 19.6196 32.8031L18.5797 36.9743L16.0432 36.3428L17.0933 32.1245C16.8436 32.0607 16.5921 31.995 16.3386 31.9289C15.9912 31.8382 15.6402 31.7466 15.2853 31.6575L11.9806 30.8335L13.2408 27.9283C13.2408 27.9283 15.112 28.4247 15.0856 28.388C15.8052 28.5657 16.124 28.0972 16.2503 27.7858L17.91 21.1295L18.1787 21.1956C18.0759 21.1559 17.9849 21.1295 17.9144 21.1118L19.0982 16.3604C19.129 15.8199 18.944 15.1399 17.9158 14.8829C17.9555 14.8564 16.0711 14.4246 16.0711 14.4246L16.7467 11.7133L20.2482 12.5872L20.2453 12.6004C20.7358 12.7238 21.2417 12.8394 21.7558 12.9569C21.7927 12.9654 21.8297 12.9738 21.8668 12.9823L22.9066 8.81252L25.4446 9.44555L24.4239 13.5331L24.4664 13.5428C25.1352 13.6952 25.8051 13.8479 26.4581 14.0119L27.4715 9.9508L30.0095 10.5824L28.9696 14.7536ZM20.9393 29.8753C23.0117 30.4227 27.5392 31.6186 28.2573 28.7258C28.9956 25.7702 24.6084 24.7846 22.4649 24.3031C22.2245 24.2491 22.0124 24.2014 21.8389 24.158L20.4436 29.7466C20.5858 29.7819 20.7526 29.826 20.9393 29.8753ZM22.8953 21.7088C24.6222 22.1699 28.3876 23.1752 29.0431 20.5464C29.7136 17.8576 26.0532 17.0479 24.2653 16.6523C24.0637 16.6078 23.886 16.5684 23.7409 16.5323L22.4778 21.5995C22.5974 21.6293 22.7379 21.6668 22.8953 21.7088Z" fill="#00CE08"/>
</svg>
