<svg width="47" height="47" viewBox="0 0 47 47" fill="none" xmlns="http://www.w3.org/2000/svg">
<path d="M23.5 47C36.4787 47 47 36.4787 47 23.5C47 10.5213 36.4787 0 23.5 0C10.5213 0 0 10.5213 0 23.5C0 36.4787 10.5213 47 23.5 47Z" fill="#F3BA2F"/>
<path d="M17.7954 21.1559L23.5 15.4512L29.2076 21.1588L32.5269 17.8394L23.5 8.81248L14.476 17.8365L17.7954 21.1559ZM8.81249 23.5L12.1319 20.1806L15.4512 23.5L12.1319 26.8194L8.81249 23.5ZM17.7954 25.8441L23.5 31.5487L29.2076 25.8412L32.5269 29.1591L23.5 38.1875L14.476 29.1635L14.4716 29.1591L17.7954 25.8441ZM31.5487 23.5L34.8681 20.1806L38.1875 23.5L34.8681 26.8194L31.5487 23.5ZM26.8664 23.497H26.8693V23.5L23.5 26.8693L20.1351 23.5059L20.1292 23.5L20.1351 23.4956L20.7241 22.9051L21.0105 22.6187L23.5 20.1307L26.8678 23.4985L26.8664 23.497Z" fill="white"/>
</svg>
