<svg width="21" height="21" viewBox="0 0 21 21" fill="none" xmlns="http://www.w3.org/2000/svg">
<path d="M18.7775 11.1793C18.6125 10.9915 18.5215 10.75 18.5215 10.5C18.5215 10.25 18.6125 10.0085 18.7775 9.82068L20.0949 8.33853C20.2401 8.1766 20.3303 7.97284 20.3525 7.75649C20.3746 7.54014 20.3277 7.32232 20.2184 7.13429L18.1599 3.57301C18.0517 3.38519 17.887 3.23631 17.6893 3.1476C17.4915 3.05888 17.2708 3.03486 17.0586 3.07896L15.1236 3.47008C14.8773 3.52096 14.621 3.47995 14.403 3.3548C14.1849 3.22966 14.0202 3.02902 13.9399 2.79076L13.312 0.907198C13.243 0.702764 13.1114 0.5252 12.936 0.399605C12.7605 0.274011 12.55 0.206737 12.3342 0.207294H8.21716C7.99271 0.195579 7.77059 0.257653 7.58474 0.384035C7.39888 0.510416 7.2595 0.694159 7.18789 0.907198L6.61149 2.79076C6.53121 3.02902 6.3665 3.22966 6.14844 3.3548C5.93038 3.47995 5.67405 3.52096 5.42783 3.47008L3.44134 3.07896C3.24017 3.05053 3.03509 3.08228 2.85193 3.17019C2.66876 3.25811 2.51572 3.39827 2.41207 3.57301L0.353529 7.13429C0.241503 7.32022 0.191133 7.53682 0.209619 7.75311C0.228105 7.9694 0.314501 8.1743 0.456456 8.33853L1.76363 9.82068C1.92864 10.0085 2.01964 10.25 2.01964 10.5C2.01964 10.75 1.92864 10.9915 1.76363 11.1793L0.456456 12.6615C0.314501 12.8257 0.228105 13.0306 0.209619 13.2469C0.191133 13.4632 0.241503 13.6798 0.353529 13.8657L2.41207 17.427C2.52024 17.6148 2.68495 17.7637 2.88271 17.8524C3.08046 17.9411 3.30118 17.9651 3.51339 17.921L5.44842 17.5299C5.69464 17.479 5.95096 17.52 6.16902 17.6452C6.38708 17.7703 6.5518 17.971 6.63208 18.2092L7.25993 20.0928C7.33155 20.3058 7.47093 20.4896 7.65679 20.616C7.84264 20.7423 8.06476 20.8044 8.2892 20.7927H12.4063C12.6221 20.7933 12.8326 20.726 13.008 20.6004C13.1835 20.4748 13.315 20.2972 13.3841 20.0928L14.0119 18.2092C14.0922 17.971 14.2569 17.7703 14.475 17.6452C14.6931 17.52 14.9494 17.479 15.1956 17.5299L17.1306 17.921C17.3428 17.9651 17.5636 17.9411 17.7613 17.8524C17.9591 17.7637 18.1238 17.6148 18.232 17.427L20.2905 13.8657C20.3998 13.6777 20.4467 13.4599 20.4245 13.2435C20.4023 13.0272 20.3122 12.8234 20.167 12.6615L18.7775 11.1793ZM17.2439 12.5585L18.0673 13.4849L16.7498 15.7699L15.5353 15.5228C14.794 15.3713 14.0228 15.4972 13.3682 15.8767C12.7136 16.2562 12.2212 16.8628 11.9843 17.5814L11.5932 18.7342H8.95823L8.58769 17.5608C8.35081 16.8422 7.85833 16.2356 7.20374 15.8561C6.54915 15.4766 5.77801 15.3507 5.03671 15.5023L3.82217 15.7493L2.48412 13.4746L3.30754 12.5482C3.81389 11.9821 4.09383 11.2492 4.09383 10.4897C4.09383 9.73018 3.81389 8.99729 3.30754 8.43117L2.48412 7.50482L3.80158 5.24043L5.01612 5.48745C5.75743 5.63898 6.52856 5.51306 7.18315 5.13359C7.83775 4.75411 8.33023 4.14751 8.56711 3.42891L8.95823 2.26584H11.5932L11.9843 3.4392C12.2212 4.1578 12.7136 4.76441 13.3682 5.14388C14.0228 5.52335 14.794 5.64928 15.5353 5.49775L16.7498 5.25072L18.0673 7.5357L17.2439 8.46204C16.7432 9.02687 16.4667 9.75551 16.4667 10.5103C16.4667 11.2651 16.7432 11.9937 17.2439 12.5585ZM10.2757 6.38292C9.46142 6.38292 8.66542 6.62438 7.98837 7.07677C7.31132 7.52916 6.78362 8.17216 6.47201 8.92446C6.1604 9.67676 6.07886 10.5046 6.23772 11.3032C6.39658 12.1018 6.7887 12.8354 7.36448 13.4112C7.94026 13.987 8.67386 14.3791 9.47249 14.538C10.2711 14.6968 11.0989 14.6153 11.8512 14.3037C12.6035 13.9921 13.2465 13.4644 13.6989 12.7873C14.1513 12.1103 14.3928 11.3143 14.3928 10.5C14.3928 9.40808 13.959 8.36089 13.1869 7.58878C12.4148 6.81668 11.3676 6.38292 10.2757 6.38292ZM10.2757 12.5585C9.86856 12.5585 9.47056 12.4378 9.13203 12.2116C8.79351 11.9854 8.52966 11.6639 8.37385 11.2878C8.21805 10.9116 8.17728 10.4977 8.25671 10.0984C8.33614 9.69908 8.5322 9.33228 8.82009 9.04439C9.10798 8.7565 9.47478 8.56044 9.8741 8.48101C10.2734 8.40158 10.6873 8.44235 11.0635 8.59816C11.4396 8.75396 11.7611 9.01781 11.9873 9.35634C12.2135 9.69486 12.3342 10.0929 12.3342 10.5C12.3342 11.046 12.1174 11.5696 11.7313 11.9556C11.3453 12.3417 10.8217 12.5585 10.2757 12.5585Z" fill="#0B0B0B" stroke="#FEF9DB" stroke-width="0.4"/>
</svg>
